<svg xmlns="http://www.w3.org/2000/svg" width="2000" height="2209" viewBox="0 0 2000 2209" version="1.1"><path d="M 870.073 118.134 C 821.988 124.122, 782.459 129.208, 782.231 129.436 C 782.003 129.664, 782.390 134.878, 783.092 141.024 L 784.368 152.197 787.934 151.652 C 798.475 150.040, 861.055 142.736, 861.320 143.087 C 861.492 143.314, 866.881 186.429, 873.297 238.898 C 879.713 291.366, 885.208 334.541, 885.508 334.841 C 886.070 335.403, 911.798 332.575, 912.398 331.885 C 912.582 331.673, 907.417 288.313, 900.920 235.530 C 894.423 182.746, 889.210 139.457, 889.335 139.331 C 889.461 139.206, 906.649 137.016, 927.532 134.465 C 948.414 131.914, 965.654 129.674, 965.842 129.488 C 966.030 129.302, 965.615 124.166, 964.919 118.075 L 963.655 107 960.577 107.123 C 958.885 107.191, 918.158 112.146, 870.073 118.134 M 1110.894 112.250 C 1110.836 112.388, 1101.460 160.200, 1090.059 218.500 C 1071.927 311.214, 1069.527 324.590, 1070.914 325.217 C 1072.733 326.039, 1124.511 336.117, 1139.500 338.566 C 1153.504 340.854, 1175.782 340.667, 1187.500 338.163 C 1207.006 333.994, 1220.237 326.925, 1233.532 313.569 C 1249.750 297.278, 1259.610 275.570, 1265.132 244 C 1266.978 233.444, 1266.729 207.365, 1264.695 198.385 C 1258.480 170.936, 1243.138 151.439, 1217.395 138.274 C 1207.999 133.470, 1193.656 128.286, 1183.254 125.936 C 1177.194 124.567, 1112.751 112.012, 1111.750 112.005 C 1111.338 112.002, 1110.952 112.112, 1110.894 112.250 M 1133.509 141.250 C 1132.832 143.227, 1101.090 307.423, 1101.337 307.670 C 1101.971 308.304, 1138.828 315.098, 1147 316.087 C 1187.573 320.997, 1216.350 302.971, 1229.093 264.663 C 1233.950 250.064, 1236.254 236.303, 1236.320 221.500 C 1236.484 184.970, 1219.758 162.041, 1184.563 150.552 C 1178.378 148.533, 1138.087 140, 1134.739 140 C 1134.298 140, 1133.745 140.563, 1133.509 141.250 M 676.628 163.507 C 640.948 175.829, 611.590 186.077, 611.387 186.280 C 611.089 186.578, 677.255 379.804, 680.870 389.192 L 681.906 391.884 694.685 387.377 C 701.713 384.898, 707.569 382.765, 707.698 382.635 C 707.827 382.506, 700.286 360.197, 690.940 333.060 C 681.594 305.923, 674.166 283.501, 674.434 283.232 C 674.702 282.964, 695.077 275.825, 719.711 267.369 C 744.345 258.912, 765.508 251.556, 766.739 251.023 L 768.978 250.053 765.353 239.776 C 763.360 234.124, 761.578 229.326, 761.395 229.114 C 761.212 228.902, 739.866 236.033, 713.961 244.961 C 688.055 253.888, 666.632 260.965, 666.353 260.686 C 665.037 259.370, 645.056 199.553, 645.730 198.946 C 646.154 198.565, 669.788 190.255, 698.250 180.481 C 726.712 170.706, 750 162.419, 750 162.066 C 750 160.138, 743.215 141.580, 742.430 141.362 C 741.919 141.220, 712.308 151.185, 676.628 163.507 M 1344.136 168.746 C 1342.103 172.545, 1257 364.132, 1257 364.910 C 1257 366.297, 1281.008 376.393, 1281.972 375.412 C 1282.464 374.910, 1291.883 354.301, 1302.904 329.613 C 1313.925 304.924, 1323.173 284.493, 1323.457 284.210 C 1323.740 283.927, 1333.038 287.701, 1344.119 292.597 C 1358.119 298.784, 1364.508 302.110, 1365.058 303.500 C 1365.493 304.600, 1367.243 328.900, 1368.947 357.500 C 1370.651 386.100, 1372.281 411.300, 1372.569 413.500 L 1373.094 417.500 1386.995 423.635 C 1394.640 427.010, 1401.040 429.627, 1401.216 429.450 C 1401.490 429.177, 1396.297 343.431, 1394.640 320.851 L 1394.078 313.202 1399.289 314.618 C 1407.059 316.731, 1422.485 317.471, 1429.263 316.056 C 1444.399 312.896, 1457.185 302.349, 1464.868 286.685 C 1476.986 261.982, 1473.832 240.261, 1455.568 222.652 C 1449.364 216.670, 1438.868 209.469, 1429.411 204.707 C 1424.134 202.050, 1354.250 170.612, 1346.327 167.331 C 1345.681 167.064, 1344.696 167.700, 1344.136 168.746 M 1359.115 203.186 C 1358.088 205.559, 1351.770 219.817, 1345.077 234.870 C 1338.384 249.924, 1333.041 262.355, 1333.204 262.494 C 1333.367 262.633, 1346.325 268.413, 1362 275.338 C 1393.082 289.071, 1399.937 291.337, 1410.500 291.368 C 1424.095 291.408, 1433.447 285.932, 1438.982 274.688 C 1448.880 254.581, 1441.196 237.032, 1417.045 224.588 C 1412.345 222.166, 1398.150 215.599, 1385.500 209.993 C 1372.850 204.388, 1362.159 199.592, 1361.742 199.337 C 1361.325 199.081, 1360.143 200.813, 1359.115 203.186 M 524.112 230.546 C 504.098 241.178, 487.302 250.298, 486.788 250.812 C 485.984 251.616, 491.427 263.814, 494.853 268.891 C 495.610 270.012, 498.229 268.993, 508.357 263.634 L 520.922 256.987 522.142 259.243 C 536.496 285.812, 602 409.618, 602 410.179 C 602 410.608, 600.087 411.921, 597.750 413.096 C 595.413 414.271, 589.840 417.213, 585.367 419.634 L 577.234 424.035 582.076 433.143 C 584.740 438.153, 587.106 442.440, 587.336 442.669 C 587.701 443.034, 660.735 404.554, 661.981 403.340 C 662.394 402.937, 655.598 388.955, 653.162 385.198 C 652.517 384.203, 649.413 385.462, 640.033 390.522 C 633.277 394.167, 627.389 396.778, 626.948 396.325 C 625.926 395.272, 545.996 244.973, 546.011 244.129 C 546.017 243.783, 551.595 240.585, 558.407 237.023 L 570.792 230.546 566.439 222.023 C 564.045 217.335, 561.730 212.986, 561.293 212.358 C 560.750 211.575, 549.026 217.311, 524.112 230.546 M 1519 264.201 C 1515.975 268.679, 1513.357 272.693, 1513.183 273.122 C 1513.009 273.551, 1518.088 277.379, 1524.471 281.630 C 1531.644 286.407, 1535.887 289.851, 1535.582 290.647 C 1535.310 291.355, 1515.117 321.537, 1490.707 357.717 C 1466.298 393.898, 1444.755 425.855, 1442.834 428.733 L 1439.341 433.967 1428.920 426.891 C 1423.189 422.999, 1417.770 419.422, 1416.878 418.941 C 1415.576 418.239, 1414.146 419.734, 1409.628 426.523 C 1406.533 431.175, 1404.011 435.322, 1404.024 435.740 C 1404.050 436.574, 1471.612 482.351, 1473.396 482.743 C 1474.912 483.076, 1486.447 466.027, 1485.367 465.048 C 1484.890 464.616, 1479.627 461.020, 1473.672 457.056 C 1467.112 452.691, 1463.035 449.350, 1463.330 448.582 C 1463.598 447.884, 1485.285 415.490, 1511.525 376.594 C 1543.631 329.002, 1559.675 306.045, 1560.585 306.394 C 1561.329 306.680, 1566.724 310.125, 1572.575 314.050 C 1578.426 317.976, 1583.545 320.808, 1583.951 320.344 C 1587.178 316.658, 1595.059 303.904, 1594.584 303.136 C 1593.917 302.057, 1527.641 257.160, 1525.722 256.487 C 1525.048 256.251, 1522.032 259.712, 1519 264.201 M 432.793 278.155 C 427.682 282.640, 423.370 286.630, 423.211 287.021 C 423.011 287.515, 510.918 442.637, 519.767 457.405 C 520.561 458.730, 524.072 461.016, 435.171 402.328 C 353.834 348.633, 352.816 348, 350.639 349.739 C 343.078 355.782, 330 367.543, 330 368.302 C 330 368.798, 349.117 409.516, 372.483 458.786 C 395.848 508.056, 414.823 548.510, 414.650 548.684 C 414.386 548.947, 385.340 526.597, 269.380 436.899 L 259.261 429.071 249.880 437.152 C 244.721 441.597, 240.140 445.563, 239.701 445.966 C 239.261 446.369, 278.186 476.533, 326.201 512.997 C 374.215 549.461, 414.040 579.716, 414.701 580.229 C 416.541 581.660, 446.262 555.400, 445.504 553.012 C 445.192 552.031, 426.520 513.734, 404.009 467.908 C 381.498 422.081, 363.250 384.416, 363.459 384.207 C 363.789 383.877, 382.854 396.639, 458 447.490 C 467.075 453.631, 484.902 465.690, 497.616 474.288 L 520.732 489.921 535.616 476.967 C 543.802 469.843, 550.443 463.369, 550.373 462.581 C 550.206 460.689, 443.708 270.082, 442.793 270.036 C 442.403 270.016, 437.903 273.670, 432.793 278.155 M 1582.538 430.750 L 1536.878 537.500 1547.684 547.629 L 1558.489 557.758 1563.495 555.514 C 1572.941 551.278, 1767.500 459.771, 1767.949 459.353 C 1768.635 458.715, 1748.703 439, 1747.372 439 C 1746.731 439, 1706.265 458.804, 1657.446 483.010 C 1608.628 507.215, 1568.530 526.863, 1568.340 526.673 C 1568.149 526.482, 1586.397 485.416, 1608.890 435.413 L 1649.787 344.500 1639.661 334.250 C 1634.092 328.613, 1629.235 324, 1628.867 324 C 1628.499 324, 1607.651 372.038, 1582.538 430.750 M 1710 561.960 C 1657.181 596.288, 1619.544 621.365, 1619.606 622.189 C 1619.752 624.146, 1697.040 743, 1698.166 743 C 1698.667 743, 1703.099 740.295, 1708.016 736.989 L 1716.955 730.979 1710.641 721.239 C 1707.169 715.883, 1693.088 694.175, 1679.352 673 C 1665.615 651.825, 1654.066 633.980, 1653.688 633.346 C 1653.250 632.610, 1660.171 627.543, 1672.750 619.389 C 1683.613 612.348, 1698.881 602.432, 1706.679 597.353 L 1720.859 588.119 1747.539 629.309 C 1762.213 651.964, 1774.733 671.030, 1775.360 671.679 C 1776.229 672.577, 1778.565 671.506, 1785.172 667.179 C 1789.941 664.055, 1794.140 661.201, 1794.503 660.835 C 1794.866 660.470, 1782.782 641.127, 1767.650 617.850 C 1752.518 594.573, 1740.219 575.482, 1740.319 575.425 C 1740.418 575.368, 1752.766 567.372, 1767.758 557.658 C 1782.749 547.943, 1795.437 539.884, 1795.953 539.747 C 1796.469 539.611, 1810.919 561.100, 1828.063 587.500 C 1845.207 613.900, 1859.340 635.621, 1859.470 635.769 C 1859.599 635.917, 1864.037 633.203, 1869.330 629.737 L 1878.955 623.434 1840.379 563.967 C 1819.162 531.260, 1801.509 504.194, 1801.151 503.821 C 1800.793 503.448, 1759.775 529.610, 1710 561.960 M 211.379 518.356 C 188.891 524.062, 168.266 543.242, 155.441 570.377 C 144.700 593.101, 143.404 612.734, 151.529 629.626 C 158.184 643.463, 177.032 657.397, 192.795 660.136 C 202.569 661.834, 212.429 660.028, 223.736 654.468 C 234.759 649.048, 242.376 643.055, 263 623.576 C 285.710 602.125, 295.326 596.382, 307.134 597.214 C 319.453 598.082, 333.424 608.270, 339.189 620.591 C 341.877 626.334, 342.295 628.333, 342.277 635.366 C 342.242 649.503, 335.928 663.590, 323.828 676.524 C 306.927 694.592, 286.173 697.887, 262.382 686.281 C 258.317 684.298, 254.811 682.861, 254.590 683.088 C 253.855 683.844, 241.853 713.188, 242.179 713.433 C 243.091 714.120, 252.294 717.476, 258 719.203 C 267.477 722.071, 286.473 722.763, 296.219 720.595 C 311.071 717.290, 325.279 708.719, 338.021 695.376 C 360.930 671.385, 372.619 640.547, 367.647 617.219 C 365.170 605.600, 360.705 597.657, 351.502 588.500 C 338.441 575.503, 325.343 568.950, 310.951 568.213 C 289.871 567.133, 275.735 574.439, 246.445 601.555 C 219.891 626.137, 211.957 631.298, 200.517 631.429 C 188.571 631.565, 175.774 621.909, 172.366 610.188 C 169.098 598.946, 172.850 583.516, 182.313 569.281 C 196.696 547.646, 216.554 541.137, 237.899 551.060 C 241.419 552.696, 244.377 553.914, 244.473 553.767 C 245.459 552.252, 256.851 523.517, 256.574 523.241 C 256.370 523.037, 252.895 521.711, 248.852 520.294 C 242.796 518.172, 239.297 517.660, 229 517.387 C 220.972 517.175, 214.668 517.522, 211.379 518.356 M 1587.246 1565.250 C 1586.677 1565.962, 1586.594 1567.361, 1587.053 1568.500 C 1588.514 1572.124, 1588.098 1582.907, 1586.367 1586.300 C 1585.469 1588.060, 1575.344 1601.259, 1563.867 1615.631 C 1552.390 1630.003, 1543 1642.008, 1543 1642.310 C 1543 1642.803, 1586.740 1716.024, 1587.523 1716.842 C 1588.545 1717.909, 1591.277 1714.655, 1594.525 1708.500 C 1602.139 1694.069, 1612.342 1682.263, 1623.604 1674.852 C 1636.933 1666.080, 1653.180 1664.536, 1666.414 1670.784 C 1679.091 1676.769, 1692.786 1693.316, 1698.044 1709 C 1702.989 1723.752, 1704.042 1737.509, 1701.511 1754.303 C 1698.976 1771.116, 1691.219 1790.622, 1682.880 1801.151 C 1679.920 1804.888, 1679.774 1807, 1682.474 1807 C 1683.220 1807, 1686.287 1804.188, 1689.288 1800.750 C 1714.293 1772.113, 1726.161 1731.445, 1718.398 1701 C 1712.893 1679.411, 1695.285 1657.430, 1676.303 1648.450 C 1653.645 1637.731, 1626.256 1644.700, 1604.797 1666.645 C 1597.148 1674.466, 1595.192 1676.888, 1589.396 1685.713 L 1585.238 1692.043 1572.980 1671.272 C 1566.238 1659.847, 1560.580 1650.240, 1560.408 1649.922 C 1560.235 1649.604, 1566.973 1640.980, 1575.380 1630.759 C 1583.787 1620.537, 1594.118 1607.924, 1598.339 1602.730 L 1606.012 1593.287 1597.756 1578.672 C 1593.215 1570.635, 1589.218 1564.045, 1588.872 1564.029 C 1588.527 1564.013, 1587.795 1564.563, 1587.246 1565.250 M 364 1604.362 C 351.293 1607.123, 339.996 1616.168, 333.971 1628.407 C 329.210 1638.079, 329.174 1643.111, 333.535 1689.308 C 337.796 1734.447, 337.741 1735.759, 331.201 1745.066 C 321.271 1759.197, 305.939 1762.722, 289.578 1754.636 C 270.368 1745.142, 257.972 1724.696, 261.070 1707.616 C 262.516 1699.639, 265.143 1694.750, 271.645 1687.933 C 276.391 1682.958, 276.851 1682.122, 275.475 1680.980 C 273.593 1679.417, 269.267 1681.547, 258.877 1689.153 C 249.689 1695.879, 244 1702.243, 244 1705.796 C 244 1720.804, 265.151 1753.003, 281.532 1762.930 C 309.246 1779.727, 340.052 1771.908, 353.519 1744.659 C 355.721 1740.204, 357.312 1735.305, 357.645 1731.954 C 357.952 1728.875, 356.583 1709.521, 354.502 1687.500 C 352.475 1666.050, 351.015 1645.575, 351.258 1642 C 351.993 1631.199, 357.367 1622.925, 366.571 1618.421 C 371.430 1616.044, 372.895 1615.794, 379.495 1616.218 C 389.945 1616.889, 397.752 1620.874, 406.238 1629.870 C 420.437 1644.921, 422.779 1658.245, 413.391 1670.554 C 411.063 1673.606, 410.879 1674.304, 412.090 1675.493 C 413.296 1676.678, 415.305 1675.172, 426 1665.062 L 438.500 1653.246 434 1648.254 C 431.525 1645.508, 427.025 1639.784, 424 1635.535 C 411.383 1617.810, 397.974 1607.585, 383.257 1604.467 C 375.266 1602.773, 371.411 1602.752, 364 1604.362 M 460.592 1678.620 C 460.132 1679.819, 460.993 1681.194, 463.498 1683.259 C 470.408 1688.954, 473.400 1698.654, 470.271 1705.209 C 467.730 1710.530, 377.199 1821.896, 373.548 1824.191 C 371.145 1825.701, 369.080 1826.036, 363.788 1825.773 C 358.144 1825.492, 356.350 1824.927, 352.509 1822.219 C 347.496 1818.686, 346.449 1818.381, 345.740 1820.250 C 345.292 1821.429, 396.871 1864.133, 399.547 1864.799 C 402.390 1865.507, 401.717 1862.021, 398.544 1859.601 C 394.613 1856.603, 389.989 1847.892, 390.026 1843.554 C 390.041 1841.874, 390.828 1838.884, 391.776 1836.908 C 392.724 1834.933, 414.326 1807.640, 439.780 1776.258 C 473.245 1734.999, 486.993 1718.757, 489.431 1717.600 C 495.749 1714.602, 503.433 1716.042, 510.702 1721.586 C 513.930 1724.049, 516.042 1724.091, 515.959 1721.691 C 515.925 1720.711, 464.261 1678.151, 461.960 1677.208 C 461.567 1677.047, 460.952 1677.683, 460.592 1678.620 M 1485.477 1681.399 C 1473.236 1683.724, 1460.838 1689.862, 1448.391 1699.761 C 1436.906 1708.894, 1421.798 1732.280, 1420.457 1743 L 1419.894 1747.500 1432.366 1759.250 C 1439.226 1765.713, 1445.298 1771, 1445.860 1771 C 1448.201 1771, 1447.928 1768.755, 1445.084 1764.622 C 1435.787 1751.109, 1434.958 1736.035, 1442.726 1721.762 C 1446.302 1715.193, 1459.158 1703.229, 1466.568 1699.575 C 1474.104 1695.859, 1485.768 1694.919, 1494.138 1697.352 C 1508.874 1701.635, 1525.403 1718.015, 1532.822 1735.684 C 1536.220 1743.777, 1539.821 1760.093, 1541.601 1775.459 C 1542.899 1786.666, 1543.120 1795.555, 1542.697 1819.500 C 1542.167 1849.511, 1540.985 1864.220, 1536.849 1892.285 C 1535.215 1903.372, 1534.956 1907.356, 1535.813 1908.213 C 1536.670 1909.070, 1549.377 1899.992, 1586.609 1871.928 C 1613.918 1851.342, 1636.764 1834.180, 1637.377 1833.789 C 1638.141 1833.302, 1636.191 1826.152, 1631.189 1811.092 C 1625.405 1793.680, 1623.573 1789.226, 1622.385 1789.683 C 1621.122 1790.167, 1620.992 1791.878, 1621.566 1800.446 C 1622.448 1813.615, 1620.738 1820.158, 1614.700 1826.714 C 1610.577 1831.190, 1553.036 1875.369, 1552.294 1874.627 C 1552.086 1874.419, 1553.277 1864.405, 1554.942 1852.374 C 1559.483 1819.558, 1561 1801.699, 1560.997 1781.110 C 1560.992 1745.120, 1556.064 1724.054, 1543.546 1706.512 C 1538.451 1699.372, 1530.070 1691.403, 1523.777 1687.715 C 1513.022 1681.412, 1498.240 1678.975, 1485.477 1681.399 M 538.080 1740.250 C 530.367 1760.179, 533.866 1753.196, 493.153 1829.906 C 466.105 1880.869, 458.911 1893.674, 456.500 1895.153 C 451.717 1898.088, 447.107 1898.538, 442.011 1896.568 C 436.472 1894.427, 433.826 1894.145, 433.304 1895.640 C 432.836 1896.982, 483.691 1924.309, 485.070 1923.457 C 486.696 1922.452, 486.073 1920.158, 483.995 1919.498 C 480.970 1918.538, 476.122 1914.136, 474.381 1910.769 C 470.604 1903.466, 470.550 1903.596, 503.116 1842.144 C 519.772 1810.715, 533.647 1785.004, 533.950 1785.008 C 534.252 1785.012, 550.186 1831.783, 569.358 1888.942 C 590.573 1952.193, 604.775 1993.084, 605.646 1993.418 C 606.459 1993.730, 607.342 1993.219, 607.693 1992.233 C 613.505 1975.911, 682.150 1844.468, 687.885 1838.680 C 690.987 1835.549, 697.591 1833.624, 701.779 1834.630 C 703.276 1834.990, 706.144 1836.107, 708.154 1837.113 C 711.471 1838.774, 711.865 1838.794, 712.428 1837.328 C 712.768 1836.440, 712.895 1835.561, 712.709 1835.375 C 711.240 1833.907, 661.438 1808.229, 660.811 1808.617 C 659.061 1809.699, 660.164 1811.633, 663.580 1813.473 C 671.263 1817.611, 674.975 1825.391, 672.739 1832.669 C 671.695 1836.069, 614.923 1944.154, 613.113 1946.189 C 612.776 1946.568, 596.801 1900.443, 577.614 1843.689 C 558.426 1786.935, 542.284 1739.938, 541.741 1739.250 C 540.276 1737.393, 539.056 1737.726, 538.080 1740.250 M 1346.402 1764.941 C 1339.089 1766.094, 1334.566 1767.697, 1325.500 1772.354 C 1309.561 1780.540, 1298.576 1795.411, 1294.453 1814.382 C 1291.758 1826.784, 1292.819 1848.854, 1296.844 1864.143 C 1307.852 1905.950, 1334.548 1948.456, 1361.399 1966.930 C 1371.853 1974.123, 1388.985 1980, 1399.500 1980 C 1406.464 1980, 1418.603 1976.818, 1427 1972.792 C 1433.709 1969.575, 1437.087 1967.114, 1443.034 1961.108 C 1456.550 1947.458, 1461.396 1934.383, 1461.420 1911.500 C 1461.443 1888.467, 1456.037 1868.109, 1442.553 1840.458 C 1425.225 1804.922, 1404.288 1781.276, 1380.622 1770.512 C 1369.091 1765.268, 1356.913 1763.285, 1346.402 1764.941 M 1338.929 1777.367 C 1304.208 1786.729, 1302.050 1834.238, 1333.496 1896.991 C 1354.225 1938.360, 1377.852 1962.791, 1401.310 1967.113 C 1417.565 1970.108, 1433.561 1960.665, 1440.203 1944.153 C 1442.257 1939.045, 1442.471 1936.910, 1442.423 1922 C 1442.374 1906.818, 1442.122 1904.565, 1439.267 1893.801 C 1431.265 1863.640, 1411.462 1824.902, 1392.970 1803.240 C 1385.913 1794.972, 1374.104 1785.100, 1366.913 1781.456 C 1356.948 1776.406, 1347.574 1775.037, 1338.929 1777.367 M 1186.660 1823.048 C 1167.803 1826.213, 1148.389 1836.484, 1135.560 1850.084 C 1131.874 1853.991, 1129.066 1857.708, 1129.320 1858.344 C 1133.719 1869.348, 1143.352 1890.996, 1143.845 1890.985 C 1146.290 1890.928, 1146.907 1889.246, 1145.865 1885.473 C 1144.017 1878.781, 1145.211 1865.361, 1148.242 1858.764 C 1151.554 1851.554, 1158.997 1844.040, 1166.660 1840.172 C 1183.085 1831.880, 1198.122 1830.749, 1209.723 1836.933 C 1216.550 1840.572, 1224.173 1848.003, 1228.256 1855 C 1229.701 1857.475, 1232.349 1863.775, 1234.141 1869 C 1237.180 1877.858, 1237.397 1879.378, 1237.357 1891.500 C 1237.323 1901.921, 1236.785 1906.799, 1234.644 1916.088 C 1226.790 1950.158, 1208.378 1991.633, 1181.320 2036.205 C 1172.947 2049.998, 1171.730 2053, 1174.513 2053 C 1176.145 2053, 1296.238 2023.095, 1296.779 2022.554 C 1296.959 2022.375, 1297.743 2013.964, 1298.522 2003.864 C 1299.301 1993.764, 1300.122 1983.588, 1300.346 1981.250 C 1300.689 1977.680, 1300.468 1977, 1298.964 1977 C 1297.639 1977, 1296.617 1978.722, 1295.033 1983.625 C 1290.108 1998.871, 1285.146 2005.305, 1275.546 2008.897 C 1269.528 2011.149, 1201.980 2028.314, 1201.404 2027.738 C 1201.218 2027.552, 1204.708 2021.347, 1209.159 2013.950 C 1235.418 1970.312, 1248.195 1944.442, 1255.395 1920.333 C 1265.653 1885.987, 1261.240 1857.059, 1242.950 1838.750 C 1229.442 1825.229, 1208.489 1819.384, 1186.660 1823.048 M 766.798 1853.010 C 731.987 1858.540, 707.063 1880.690, 695.033 1916.789 C 690.144 1931.456, 688.717 1941.587, 689.224 1958 C 689.626 1971.002, 690.004 1973.482, 692.878 1982 C 703.920 2014.722, 732.754 2037.426, 774.312 2046.118 C 781.812 2047.687, 788.062 2048.248, 798 2048.245 C 813.204 2048.240, 822.996 2046.558, 835.209 2041.855 C 842.989 2038.859, 856.132 2030.914, 859.118 2027.403 C 860.007 2026.356, 863.675 2016.643, 867.267 2005.819 C 872.764 1989.259, 873.555 1986.043, 872.257 1985.545 C 870.382 1984.825, 870.955 1983.928, 867.126 1993.568 C 858.428 2015.469, 841.647 2030.450, 819.590 2036.007 C 813.819 2037.461, 808.352 2038, 799.375 2038 C 734.535 2038, 699.086 1993.016, 714.876 1930.773 C 723.334 1897.434, 741.855 1875.159, 768.500 1866.284 C 775.560 1863.932, 778.086 1863.616, 790 1863.594 C 801.625 1863.572, 804.854 1863.942, 813.248 1866.260 C 840.702 1873.841, 860.106 1888.084, 867.970 1906.430 C 870.487 1912.301, 873 1924.556, 873 1930.958 C 873 1935.209, 873.292 1936, 874.862 1936 C 876.822 1936, 876.765 1936.408, 879.866 1900.245 L 880.574 1891.990 877.037 1888.598 C 862.067 1874.242, 833.581 1860.122, 809.199 1854.971 C 798.169 1852.641, 775.673 1851.601, 766.798 1853.010 M 1026.500 1877.871 C 1021.267 1879.276, 1013.378 1879.450, 964.750 1879.238 C 910.738 1879.002, 909 1879.053, 909 1880.877 C 909 1882.464, 909.946 1882.828, 915.013 1883.195 C 922.280 1883.720, 925.642 1885.892, 928.728 1892.052 L 930.955 1896.500 929.569 1972.123 C 928.063 2054.275, 928.388 2050.497, 922.339 2056.157 C 919.407 2058.901, 913.554 2060.985, 908.750 2060.994 C 903.851 2061.004, 905.474 2063.750, 910.750 2064.377 C 914.261 2064.795, 1009.230 2066.500, 1028.983 2066.500 C 1031.278 2066.500, 1032.132 2064.872, 1040.233 2045.050 C 1045.055 2033.253, 1049 2023.241, 1049 2022.800 C 1049 2022.360, 1048.213 2022.002, 1047.250 2022.004 C 1046.118 2022.006, 1044.357 2024.212, 1042.261 2028.254 C 1037.173 2038.065, 1031.082 2045.054, 1023.996 2049.213 C 1013.891 2055.145, 1008.536 2055.735, 969.250 2055.250 L 949 2055 949.002 2037.750 C 949.004 2028.263, 949.298 2010.793, 949.656 1998.929 L 950.308 1977.358 977.404 1977.795 C 995.998 1978.094, 1005.466 1978.627, 1007.578 1979.493 C 1011.201 1980.978, 1014 1986.167, 1014 1991.401 C 1014 1994.252, 1014.389 1995, 1015.873 1995 C 1017.620 1995, 1017.794 1993.592, 1018.481 1973.876 C 1019.084 1956.568, 1018.971 1952.596, 1017.858 1951.891 C 1015.613 1950.469, 1015.297 1950.814, 1014.673 1955.373 C 1013.832 1961.506, 1012.060 1964.918, 1008.855 1966.575 C 1005.840 1968.134, 978.260 1968.570, 959.830 1967.349 L 950.160 1966.709 950.640 1930.604 C 950.904 1910.747, 951.344 1893.419, 951.617 1892.099 L 952.114 1889.697 985.298 1890.416 C 1021.968 1891.211, 1023.249 1891.431, 1027.055 1897.588 C 1028.202 1899.445, 1029.399 1903.467, 1029.715 1906.527 C 1030.168 1910.918, 1030.628 1912.026, 1031.895 1911.783 C 1033.284 1911.516, 1033.537 1909.088, 1033.773 1893.737 C 1033.923 1883.982, 1033.698 1876.059, 1033.273 1876.130 C 1032.848 1876.202, 1029.800 1876.985, 1026.500 1877.871" stroke="none" fill="#040404" fill-rule="evenodd"/><path d="M 722.348 714.420 C 708.233 717.844, 696.592 727.366, 690.228 740.692 L 686.500 748.500 686.305 766.381 C 686.124 782.987, 685.938 784.627, 683.694 789.381 C 680.258 796.662, 681.022 792.919, 669.503 859 C 663.703 892.275, 658.493 921.824, 657.926 924.665 L 656.894 929.830 653.703 928.915 C 651.949 928.412, 638.215 928, 623.183 928 C 596.554 928, 595.658 928.065, 588.271 930.545 C 560.371 939.911, 549.294 966.918, 562.587 993.169 C 566.373 1000.644, 574.549 1009.668, 582.622 1015.280 C 588.642 1019.465, 590.001 1020.877, 589.567 1022.492 C 589.270 1023.596, 589.021 1037.147, 589.014 1052.605 L 589 1080.710 581.806 1081.313 C 564.648 1082.751, 550.821 1095.592, 545.389 1115.131 C 544.322 1118.970, 542.924 1140.736, 540.482 1191.500 C 535.672 1291.500, 535.398 1301.939, 537.372 1310.259 C 540.577 1323.771, 547.848 1333.855, 557.857 1338.672 C 563.153 1341.220, 564.530 1341.413, 580.250 1341.809 L 597 1342.231 597.015 1373.865 C 597.031 1408.905, 597.623 1413.761, 603.143 1424.118 C 609.070 1435.237, 622.401 1445.242, 634.799 1447.875 C 643.194 1449.657, 696.144 1449.374, 703.307 1447.508 C 719.323 1443.337, 731.312 1432.330, 737.171 1416.419 C 739.216 1410.864, 739.376 1408.393, 739.765 1376.250 L 740.179 1342 996.531 1342 L 1252.883 1342 1253.204 1377.250 C 1253.512 1411.113, 1253.613 1412.720, 1255.779 1418.104 C 1260.809 1430.604, 1271.359 1441.203, 1283.676 1446.131 C 1289.265 1448.367, 1290.763 1448.475, 1320.781 1448.795 C 1341.421 1449.015, 1353.912 1448.745, 1357.500 1448 C 1370.048 1445.395, 1383.260 1435.576, 1389.221 1424.425 C 1394.533 1414.489, 1395 1410.485, 1395 1374.905 L 1395 1342.231 1411.750 1341.813 C 1426.409 1341.447, 1429.124 1341.115, 1433.500 1339.150 C 1442.121 1335.278, 1449.846 1326.356, 1453.469 1316.087 C 1457.185 1305.556, 1457.171 1302.624, 1452.994 1211.832 C 1450.784 1163.799, 1448.478 1122.025, 1447.869 1119 C 1443.350 1096.525, 1426.988 1081, 1407.818 1081 L 1403 1081 1403.020 1050.250 L 1403.040 1019.500 1408.117 1016.500 C 1410.910 1014.850, 1416.237 1010.304, 1419.954 1006.397 C 1432.100 993.636, 1437.662 978.146, 1435.097 964.226 C 1432.039 947.624, 1418.903 934.075, 1401.465 929.533 C 1396.879 928.339, 1389.719 928.005, 1369.040 928.024 C 1354.443 928.037, 1340.888 928.422, 1338.919 928.880 L 1335.337 929.713 1331.570 908.107 C 1313.531 804.647, 1311.994 796.584, 1309.149 790.504 C 1306.389 784.606, 1306.323 784.083, 1306.766 771.470 C 1307.313 755.866, 1306.172 748.860, 1301.545 739.439 C 1295.325 726.772, 1282.022 716.659, 1268.109 714.021 C 1259.588 712.405, 729.056 712.793, 722.348 714.420 M 724.461 791.878 C 719.721 794.032, 712.371 801.978, 711.569 805.817 C 709.059 817.830, 680.027 986.361, 680.403 986.736 C 680.670 987.003, 700.601 989.458, 724.694 992.190 C 764.832 996.742, 769.840 997.114, 784.500 996.629 C 793.300 996.337, 804.326 995.419, 809.002 994.588 C 813.678 993.756, 850.578 984.538, 891.002 974.103 C 959.712 956.366, 972.094 953.430, 981 952.762 L 984.500 952.500 984.789 944.360 L 985.077 936.220 976.786 927.860 C 968.286 919.290, 963.450 911.547, 962.345 904.737 C 961.863 901.768, 962.207 900.702, 964.336 898.573 C 969.053 893.856, 977.143 896.015, 989.735 905.351 L 995.971 909.974 1004.585 904.359 C 1015.012 897.563, 1020.969 895.505, 1025.699 897.066 C 1029.356 898.273, 1030.653 901.196, 1029.552 905.750 C 1027.686 913.471, 1017.269 928.295, 1010.472 932.904 L 1006.927 935.308 1007.213 943.904 L 1007.500 952.500 1015.459 953.288 C 1024.469 954.180, 1024.364 954.155, 1111.500 976.666 C 1146.700 985.760, 1179.325 993.844, 1184 994.631 C 1188.675 995.418, 1199.475 996.323, 1208 996.642 C 1222.087 997.169, 1227.238 996.803, 1264.500 992.626 C 1313.719 987.108, 1311.999 987.376, 1312.003 985.205 C 1312.005 984.267, 1304.998 943.483, 1296.433 894.574 C 1285.966 834.803, 1280.237 804.425, 1278.959 801.920 C 1276.580 797.256, 1271.055 792.633, 1266.078 791.141 C 1263.264 790.298, 1192.517 790.006, 995.384 790.022 C 738.683 790.043, 728.346 790.114, 724.461 791.878 M 677 1093.515 C 633.858 1104.090, 617.784 1152.996, 647.336 1183.771 C 654.695 1191.435, 661.864 1195.942, 672.510 1199.595 C 679.272 1201.916, 682.190 1202.344, 691.500 1202.382 C 704.105 1202.433, 710.555 1200.886, 721.379 1195.219 C 749.067 1180.721, 759.293 1148.133, 744.511 1121.500 C 737.255 1108.425, 723.226 1098.022, 707.391 1093.972 C 698.402 1091.673, 685.316 1091.476, 677 1093.515 M 1285.512 1093.614 C 1275.170 1096.114, 1265.246 1101.729, 1257.460 1109.486 C 1245.576 1121.326, 1240.364 1134.380, 1241.282 1150 C 1242.776 1175.400, 1261.494 1195.890, 1288.254 1201.417 C 1292.468 1202.288, 1297.920 1203, 1300.370 1203 C 1308.806 1203, 1320.295 1200.138, 1328.914 1195.888 C 1356.647 1182.217, 1367.711 1150.617, 1354.389 1123.131 C 1350.792 1115.711, 1338.484 1103.472, 1330.314 1099.192 C 1317.489 1092.473, 1299.498 1090.233, 1285.512 1093.614 M 838.051 1106.758 C 835.089 1109.156, 835 1114.445, 837.874 1117.318 L 840.055 1119.500 997.278 1119.777 C 1083.750 1119.929, 1155.524 1119.805, 1156.775 1119.501 C 1160.002 1118.718, 1163 1115.411, 1163 1112.635 C 1163 1111.334, 1162.067 1109.084, 1160.927 1107.635 L 1158.855 1105 999.538 1105 C 849.029 1105, 840.102 1105.097, 838.051 1106.758 M 838.729 1146.250 C 834.482 1149.461, 834.984 1156.760, 839.597 1158.862 C 841.430 1159.697, 884.130 1160, 1000.093 1160 L 1158.091 1160 1160.545 1157.545 C 1161.895 1156.195, 1163 1153.925, 1163 1152.500 C 1163 1151.075, 1161.895 1148.805, 1160.545 1147.455 L 1158.091 1145 999.237 1145 C 873.701 1145, 840.036 1145.262, 838.729 1146.250 M 106.131 1164.590 C 105.746 1176.582, 98.686 1193.985, 88.981 1206.864 C 73.485 1227.430, 52.012 1240.438, 28.304 1243.622 L 22.500 1244.402 29 1245.164 C 38.547 1246.285, 50.356 1250.308, 60 1255.725 C 71.611 1262.248, 88.624 1279.120, 94.954 1290.390 C 100.681 1300.585, 104.692 1312.019, 105.761 1321.195 L 106.612 1328.500 107.390 1323 C 108.665 1313.983, 110.979 1305.931, 114.465 1298.378 C 127.493 1270.147, 155.897 1248.466, 184.193 1245.153 L 190.500 1244.414 182.867 1243.231 C 151.246 1238.327, 120.807 1211.997, 111.152 1181.198 C 109.480 1175.864, 107.696 1169.025, 107.187 1166 C 106.292 1160.674, 106.259 1160.630, 106.131 1164.590 M 1892.105 1168.500 C 1888.999 1187.217, 1879.691 1204.306, 1864.833 1218.567 C 1850.669 1232.161, 1833.963 1240.625, 1815 1243.813 C 1809.674 1244.708, 1809.630 1244.741, 1813.590 1244.869 C 1820.361 1245.086, 1832.674 1248.713, 1841.337 1253.042 C 1869.245 1266.989, 1888.380 1293.097, 1892.610 1323 L 1893.388 1328.500 1894.239 1321.195 C 1895.310 1312.001, 1899.328 1300.563, 1905.057 1290.395 C 1911.456 1279.038, 1928.468 1262.148, 1940 1255.702 C 1949.667 1250.298, 1961.485 1246.281, 1971 1245.164 L 1977.500 1244.402 1971.696 1243.622 C 1958.241 1241.815, 1945.677 1236.934, 1934 1228.979 C 1912.455 1214.301, 1896.850 1190.119, 1894.222 1167.339 L 1893.433 1160.500 1892.105 1168.500 M 839.303 1186.197 C 834.728 1188.407, 834.845 1197.575, 839.471 1199.350 C 840.402 1199.708, 912.472 1200, 999.627 1200 L 1158.091 1200 1160.545 1197.545 C 1161.895 1196.195, 1163 1193.925, 1163 1192.500 C 1163 1191.075, 1161.895 1188.805, 1160.545 1187.455 L 1158.091 1185 999.795 1185.068 C 890.321 1185.114, 840.822 1185.463, 839.303 1186.197 M 629.187 1373.750 C 629.545 1410.062, 629.644 1410.522, 637.985 1414.750 C 642.249 1416.912, 643.444 1417, 668.396 1417 C 692.621 1417, 694.656 1416.861, 698.647 1414.929 C 700.999 1413.790, 703.842 1411.374, 704.962 1409.561 C 706.902 1406.423, 707 1404.717, 707 1374.132 L 707 1342 667.937 1342 L 628.873 1342 629.187 1373.750 M 1285.211 1374.428 C 1285.487 1405.382, 1285.594 1406.982, 1287.562 1409.617 C 1288.696 1411.135, 1290.866 1413.304, 1292.385 1414.438 C 1295.025 1416.409, 1296.418 1416.500, 1324 1416.500 C 1351.582 1416.500, 1352.975 1416.409, 1355.615 1414.438 C 1357.134 1413.304, 1359.304 1411.135, 1360.438 1409.617 C 1362.406 1406.982, 1362.513 1405.382, 1362.789 1374.428 L 1363.079 1342 1324 1342 L 1284.921 1342 1285.211 1374.428" stroke="none" fill="#0ca4eb" fill-rule="evenodd"/></svg>